<svg width="2797" height="2368" viewBox="0 0 2797 2368" fill="none" xmlns="http://www.w3.org/2000/svg">
<g clip-path="url(#clip0)">
<rect width="2797" height="2368" transform="matrix(-1 0 0 1 2797 0)" fill="white"/>
<g filter="url(#filter0_d)">
<path d="M1149 267.5C1149 334.603 1200.49 389 1264 389C1327.51 389 1379 334.603 1379 267.5C1379 200.397 1327.51 146 1264 146C1200.49 146 1149 200.397 1149 267.5Z" fill="#71EB52"/>
</g>
<g filter="url(#filter1_d)">
<ellipse rx="103" ry="105.5" transform="matrix(-1 0 0 1 624 746.5)" fill="#71EB52"/>
</g>
<g filter="url(#filter2_d)">
<ellipse rx="103" ry="105.5" transform="matrix(-1 0 0 1 1904 746.5)" fill="#71EB52"/>
</g>
<g filter="url(#filter3_d)">
<ellipse rx="103" ry="105.5" transform="matrix(-1 0 0 1 1600 1157.5)" fill="#71EB52"/>
</g>
<g filter="url(#filter4_d)">
<ellipse rx="103" ry="105.5" transform="matrix(-1 0 0 1 2208 1157.5)" fill="#71EB52"/>
</g>
<g filter="url(#filter5_d)">
<ellipse rx="103" ry="105.5" transform="matrix(-1 0 0 1 320 1157.5)" fill="#71EB52"/>
</g>
<g filter="url(#filter6_d)">
<ellipse rx="103" ry="105.5" transform="matrix(-1 0 0 1 928 1157.5)" fill="#71EB52"/>
</g>
<g filter="url(#filter7_d)">
<ellipse rx="103" ry="105.5" transform="matrix(-1 0 0 1 624 1672.5)" fill="#71EB52"/>
</g>
<g filter="url(#filter8_d)">
<ellipse rx="103" ry="105.5" transform="matrix(-1 0 0 1 320 2117.5)" fill="#71EB52"/>
</g>
<g filter="url(#filter9_d)">
<ellipse rx="103" ry="105.5" transform="matrix(-1 0 0 1 928 2117.5)" fill="#71EB52"/>
</g>
<g filter="url(#filter10_d)">
<ellipse rx="103" ry="105.5" transform="matrix(-1 0 0 1 1936 1672.5)" fill="#71EB52"/>
</g>
<g filter="url(#filter11_d)">
<ellipse rx="103" ry="105.5" transform="matrix(-1 0 0 1 2544 1672.5)" fill="#71EB52"/>
</g>
<g filter="url(#filter12_d)">
<ellipse rx="103" ry="105.5" transform="matrix(-1 0 0 1 1264 1672.5)" fill="#71EB52"/>
</g>
<g filter="url(#filter13_d)">
<path d="M1772.97 640.467C1773.27 643.212 1771.28 645.677 1768.53 645.971L1723.79 650.773C1721.04 651.067 1718.58 649.081 1718.29 646.335C1717.99 643.589 1719.98 641.125 1722.72 640.83L1762.5 636.562L1758.23 596.79C1757.93 594.045 1759.92 591.58 1762.67 591.285C1765.41 590.991 1767.88 592.978 1768.17 595.723L1772.97 640.467ZM1415.14 350.107L1771.14 637.107L1764.86 644.893L1408.86 357.893L1415.14 350.107Z" fill="black"/>
</g>
<g filter="url(#filter14_d)">
<path d="M753.536 645.978C750.786 645.722 748.765 643.285 749.022 640.536L753.198 595.73C753.454 592.981 755.891 590.959 758.64 591.216C761.39 591.472 763.411 593.909 763.155 596.658L759.442 636.486L799.27 640.198C802.019 640.454 804.041 642.891 803.784 645.64C803.528 648.39 801.091 650.411 798.342 650.155L753.536 645.978ZM1103.19 357.848L757.192 644.848L750.808 637.152L1096.81 350.152L1103.19 357.848Z" fill="black"/>
</g>
<g filter="url(#filter15_d)">
<path d="M1704.04 1056.89C1701.34 1057.46 1698.68 1055.74 1698.11 1053.04L1688.77 1009.02C1688.2 1006.32 1689.92 1003.66 1692.62 1003.09C1695.33 1002.52 1697.98 1004.24 1698.55 1006.94L1706.85 1046.07L1745.98 1037.77C1748.68 1037.2 1751.34 1038.92 1751.91 1041.62C1752.48 1044.33 1750.76 1046.98 1748.06 1047.55L1704.04 1056.89ZM1837.19 854.725L1707.19 1054.72L1698.81 1049.28L1828.81 849.275L1837.19 854.725Z" fill="black"/>
</g>
<g filter="url(#filter16_d)">
<path d="M702.038 1519.89C699.336 1520.46 696.682 1518.74 696.109 1516.04L686.771 1472.02C686.198 1469.32 687.923 1466.66 690.625 1466.09C693.326 1465.52 695.98 1467.24 696.553 1469.94L704.854 1509.07L743.983 1500.77C746.684 1500.2 749.339 1501.92 749.912 1504.62C750.485 1507.33 748.759 1509.98 746.058 1510.55L702.038 1519.89ZM835.192 1317.72L705.192 1517.72L696.808 1512.28L826.808 1312.28L835.192 1317.72Z" fill="black"/>
</g>
<g filter="url(#filter17_d)">
<path d="M1380.04 1519.89C1377.34 1520.46 1374.68 1518.74 1374.11 1516.04L1364.77 1472.02C1364.2 1469.32 1365.92 1466.66 1368.62 1466.09C1371.33 1465.52 1373.98 1467.24 1374.55 1469.94L1382.85 1509.07L1421.98 1500.77C1424.68 1500.2 1427.34 1501.92 1427.91 1504.62C1428.48 1507.33 1426.76 1509.98 1424.06 1510.55L1380.04 1519.89ZM1513.19 1317.72L1383.19 1517.72L1374.81 1512.28L1504.81 1312.28L1513.19 1317.72Z" fill="black"/>
</g>
<g filter="url(#filter18_d)">
<path d="M2160.95 1052.72C2160.55 1055.46 2158.01 1057.35 2155.28 1056.95L2110.75 1050.44C2108.02 1050.04 2106.13 1047.5 2106.53 1044.77C2106.92 1042.04 2109.46 1040.15 2112.2 1040.55L2151.78 1046.33L2157.56 1006.75C2157.96 1004.02 2160.5 1002.13 2163.23 1002.53C2165.96 1002.92 2167.85 1005.46 2167.45 1008.2L2160.95 1052.72ZM2011.01 849.013L2160.01 1049.01L2151.99 1054.99L2002.99 854.987L2011.01 849.013Z" fill="black"/>
</g>
<g filter="url(#filter19_d)">
<path d="M2008.04 1519.89C2005.34 1520.46 2002.68 1518.74 2002.11 1516.04L1992.77 1472.02C1992.2 1469.32 1993.92 1466.66 1996.62 1466.09C1999.33 1465.52 2001.98 1467.24 2002.55 1469.94L2010.85 1509.07L2049.98 1500.77C2052.68 1500.2 2055.34 1501.92 2055.91 1504.62C2056.48 1507.33 2054.76 1509.98 2052.06 1510.55L2008.04 1519.89ZM2141.19 1317.72L2011.19 1517.72L2002.81 1512.28L2132.81 1312.28L2141.19 1317.72Z" fill="black"/>
</g>
<g filter="url(#filter20_d)">
<path d="M2464.95 1515.72C2464.55 1518.46 2462.01 1520.35 2459.28 1519.95L2414.75 1513.44C2412.02 1513.04 2410.13 1510.5 2410.53 1507.77C2410.92 1505.04 2413.46 1503.15 2416.2 1503.55L2455.78 1509.33L2461.56 1469.75C2461.96 1467.02 2464.5 1465.13 2467.23 1465.53C2469.96 1465.92 2471.85 1468.46 2471.45 1471.2L2464.95 1515.72ZM2315.01 1312.01L2464.01 1512.01L2455.99 1517.99L2306.99 1317.99L2315.01 1312.01Z" fill="black"/>
</g>
<g filter="url(#filter21_d)">
<path d="M392.038 2016.89C389.336 2017.46 386.682 2015.74 386.109 2013.04L376.771 1969.02C376.198 1966.32 377.923 1963.66 380.625 1963.09C383.326 1962.52 385.98 1964.24 386.553 1966.94L394.854 2006.07L433.983 1997.77C436.684 1997.2 439.339 1998.92 439.912 2001.62C440.485 2004.33 438.759 2006.98 436.058 2007.55L392.038 2016.89ZM525.192 1814.72L395.192 2014.72L386.808 2009.28L516.808 1809.28L525.192 1814.72Z" fill="black"/>
</g>
<g filter="url(#filter22_d)">
<path d="M854.947 2012.72C854.548 2015.46 852.009 2017.35 849.277 2016.95L804.75 2010.44C802.018 2010.04 800.126 2007.5 800.525 2004.77C800.925 2002.04 803.464 2000.15 806.196 2000.55L845.776 2006.33L851.559 1966.75C851.959 1964.02 854.497 1962.13 857.23 1962.53C859.962 1962.92 861.854 1965.46 861.454 1968.2L854.947 2012.72ZM705.01 1809.01L854.01 2009.01L845.99 2014.99L696.99 1814.99L705.01 1809.01Z" fill="black"/>
</g>
<g filter="url(#filter23_d)">
<path d="M424.038 1056.89C421.336 1057.46 418.682 1055.74 418.109 1053.04L408.771 1009.02C408.198 1006.32 409.923 1003.66 412.625 1003.09C415.326 1002.52 417.98 1004.24 418.553 1006.94L426.854 1046.07L465.983 1037.77C468.684 1037.2 471.339 1038.92 471.912 1041.62C472.485 1044.33 470.759 1046.98 468.058 1047.55L424.038 1056.89ZM557.192 854.725L427.192 1054.72L418.808 1049.28L548.808 849.275L557.192 854.725Z" fill="black"/>
</g>
<g filter="url(#filter24_d)">
<path d="M880.947 1052.72C880.548 1055.46 878.009 1057.35 875.277 1056.95L830.75 1050.44C828.018 1050.04 826.126 1047.5 826.525 1044.77C826.925 1042.04 829.464 1040.15 832.196 1040.55L871.776 1046.33L877.559 1006.75C877.959 1004.02 880.497 1002.13 883.23 1002.53C885.962 1002.92 887.854 1005.46 887.454 1008.2L880.947 1052.72ZM731.01 849.013L880.01 1049.01L871.99 1054.99L722.99 854.987L731.01 849.013Z" fill="black"/>
</g>
</g>
<defs>
<filter id="filter0_d" x="1145" y="146" width="238" height="251" filterUnits="userSpaceOnUse" color-interpolation-filters="sRGB">
<feFlood flood-opacity="0" result="BackgroundImageFix"/>
<feColorMatrix in="SourceAlpha" type="matrix" values="0 0 0 0 0 0 0 0 0 0 0 0 0 0 0 0 0 0 127 0"/>
<feOffset dy="4"/>
<feGaussianBlur stdDeviation="2"/>
<feColorMatrix type="matrix" values="0 0 0 0 0 0 0 0 0 0 0 0 0 0 0 0 0 0 0.25 0"/>
<feBlend mode="normal" in2="BackgroundImageFix" result="effect1_dropShadow"/>
<feBlend mode="normal" in="SourceGraphic" in2="effect1_dropShadow" result="shape"/>
</filter>
<filter id="filter1_d" x="517" y="641" width="214" height="219" filterUnits="userSpaceOnUse" color-interpolation-filters="sRGB">
<feFlood flood-opacity="0" result="BackgroundImageFix"/>
<feColorMatrix in="SourceAlpha" type="matrix" values="0 0 0 0 0 0 0 0 0 0 0 0 0 0 0 0 0 0 127 0"/>
<feOffset dy="4"/>
<feGaussianBlur stdDeviation="2"/>
<feColorMatrix type="matrix" values="0 0 0 0 0 0 0 0 0 0 0 0 0 0 0 0 0 0 0.25 0"/>
<feBlend mode="normal" in2="BackgroundImageFix" result="effect1_dropShadow"/>
<feBlend mode="normal" in="SourceGraphic" in2="effect1_dropShadow" result="shape"/>
</filter>
<filter id="filter2_d" x="1797" y="641" width="214" height="219" filterUnits="userSpaceOnUse" color-interpolation-filters="sRGB">
<feFlood flood-opacity="0" result="BackgroundImageFix"/>
<feColorMatrix in="SourceAlpha" type="matrix" values="0 0 0 0 0 0 0 0 0 0 0 0 0 0 0 0 0 0 127 0"/>
<feOffset dy="4"/>
<feGaussianBlur stdDeviation="2"/>
<feColorMatrix type="matrix" values="0 0 0 0 0 0 0 0 0 0 0 0 0 0 0 0 0 0 0.25 0"/>
<feBlend mode="normal" in2="BackgroundImageFix" result="effect1_dropShadow"/>
<feBlend mode="normal" in="SourceGraphic" in2="effect1_dropShadow" result="shape"/>
</filter>
<filter id="filter3_d" x="1493" y="1052" width="214" height="219" filterUnits="userSpaceOnUse" color-interpolation-filters="sRGB">
<feFlood flood-opacity="0" result="BackgroundImageFix"/>
<feColorMatrix in="SourceAlpha" type="matrix" values="0 0 0 0 0 0 0 0 0 0 0 0 0 0 0 0 0 0 127 0"/>
<feOffset dy="4"/>
<feGaussianBlur stdDeviation="2"/>
<feColorMatrix type="matrix" values="0 0 0 0 0 0 0 0 0 0 0 0 0 0 0 0 0 0 0.25 0"/>
<feBlend mode="normal" in2="BackgroundImageFix" result="effect1_dropShadow"/>
<feBlend mode="normal" in="SourceGraphic" in2="effect1_dropShadow" result="shape"/>
</filter>
<filter id="filter4_d" x="2101" y="1052" width="214" height="219" filterUnits="userSpaceOnUse" color-interpolation-filters="sRGB">
<feFlood flood-opacity="0" result="BackgroundImageFix"/>
<feColorMatrix in="SourceAlpha" type="matrix" values="0 0 0 0 0 0 0 0 0 0 0 0 0 0 0 0 0 0 127 0"/>
<feOffset dy="4"/>
<feGaussianBlur stdDeviation="2"/>
<feColorMatrix type="matrix" values="0 0 0 0 0 0 0 0 0 0 0 0 0 0 0 0 0 0 0.25 0"/>
<feBlend mode="normal" in2="BackgroundImageFix" result="effect1_dropShadow"/>
<feBlend mode="normal" in="SourceGraphic" in2="effect1_dropShadow" result="shape"/>
</filter>
<filter id="filter5_d" x="213" y="1052" width="214" height="219" filterUnits="userSpaceOnUse" color-interpolation-filters="sRGB">
<feFlood flood-opacity="0" result="BackgroundImageFix"/>
<feColorMatrix in="SourceAlpha" type="matrix" values="0 0 0 0 0 0 0 0 0 0 0 0 0 0 0 0 0 0 127 0"/>
<feOffset dy="4"/>
<feGaussianBlur stdDeviation="2"/>
<feColorMatrix type="matrix" values="0 0 0 0 0 0 0 0 0 0 0 0 0 0 0 0 0 0 0.25 0"/>
<feBlend mode="normal" in2="BackgroundImageFix" result="effect1_dropShadow"/>
<feBlend mode="normal" in="SourceGraphic" in2="effect1_dropShadow" result="shape"/>
</filter>
<filter id="filter6_d" x="821" y="1052" width="214" height="219" filterUnits="userSpaceOnUse" color-interpolation-filters="sRGB">
<feFlood flood-opacity="0" result="BackgroundImageFix"/>
<feColorMatrix in="SourceAlpha" type="matrix" values="0 0 0 0 0 0 0 0 0 0 0 0 0 0 0 0 0 0 127 0"/>
<feOffset dy="4"/>
<feGaussianBlur stdDeviation="2"/>
<feColorMatrix type="matrix" values="0 0 0 0 0 0 0 0 0 0 0 0 0 0 0 0 0 0 0.25 0"/>
<feBlend mode="normal" in2="BackgroundImageFix" result="effect1_dropShadow"/>
<feBlend mode="normal" in="SourceGraphic" in2="effect1_dropShadow" result="shape"/>
</filter>
<filter id="filter7_d" x="517" y="1567" width="214" height="219" filterUnits="userSpaceOnUse" color-interpolation-filters="sRGB">
<feFlood flood-opacity="0" result="BackgroundImageFix"/>
<feColorMatrix in="SourceAlpha" type="matrix" values="0 0 0 0 0 0 0 0 0 0 0 0 0 0 0 0 0 0 127 0"/>
<feOffset dy="4"/>
<feGaussianBlur stdDeviation="2"/>
<feColorMatrix type="matrix" values="0 0 0 0 0 0 0 0 0 0 0 0 0 0 0 0 0 0 0.25 0"/>
<feBlend mode="normal" in2="BackgroundImageFix" result="effect1_dropShadow"/>
<feBlend mode="normal" in="SourceGraphic" in2="effect1_dropShadow" result="shape"/>
</filter>
<filter id="filter8_d" x="213" y="2012" width="214" height="219" filterUnits="userSpaceOnUse" color-interpolation-filters="sRGB">
<feFlood flood-opacity="0" result="BackgroundImageFix"/>
<feColorMatrix in="SourceAlpha" type="matrix" values="0 0 0 0 0 0 0 0 0 0 0 0 0 0 0 0 0 0 127 0"/>
<feOffset dy="4"/>
<feGaussianBlur stdDeviation="2"/>
<feColorMatrix type="matrix" values="0 0 0 0 0 0 0 0 0 0 0 0 0 0 0 0 0 0 0.25 0"/>
<feBlend mode="normal" in2="BackgroundImageFix" result="effect1_dropShadow"/>
<feBlend mode="normal" in="SourceGraphic" in2="effect1_dropShadow" result="shape"/>
</filter>
<filter id="filter9_d" x="821" y="2012" width="214" height="219" filterUnits="userSpaceOnUse" color-interpolation-filters="sRGB">
<feFlood flood-opacity="0" result="BackgroundImageFix"/>
<feColorMatrix in="SourceAlpha" type="matrix" values="0 0 0 0 0 0 0 0 0 0 0 0 0 0 0 0 0 0 127 0"/>
<feOffset dy="4"/>
<feGaussianBlur stdDeviation="2"/>
<feColorMatrix type="matrix" values="0 0 0 0 0 0 0 0 0 0 0 0 0 0 0 0 0 0 0.25 0"/>
<feBlend mode="normal" in2="BackgroundImageFix" result="effect1_dropShadow"/>
<feBlend mode="normal" in="SourceGraphic" in2="effect1_dropShadow" result="shape"/>
</filter>
<filter id="filter10_d" x="1829" y="1567" width="214" height="219" filterUnits="userSpaceOnUse" color-interpolation-filters="sRGB">
<feFlood flood-opacity="0" result="BackgroundImageFix"/>
<feColorMatrix in="SourceAlpha" type="matrix" values="0 0 0 0 0 0 0 0 0 0 0 0 0 0 0 0 0 0 127 0"/>
<feOffset dy="4"/>
<feGaussianBlur stdDeviation="2"/>
<feColorMatrix type="matrix" values="0 0 0 0 0 0 0 0 0 0 0 0 0 0 0 0 0 0 0.25 0"/>
<feBlend mode="normal" in2="BackgroundImageFix" result="effect1_dropShadow"/>
<feBlend mode="normal" in="SourceGraphic" in2="effect1_dropShadow" result="shape"/>
</filter>
<filter id="filter11_d" x="2437" y="1567" width="214" height="219" filterUnits="userSpaceOnUse" color-interpolation-filters="sRGB">
<feFlood flood-opacity="0" result="BackgroundImageFix"/>
<feColorMatrix in="SourceAlpha" type="matrix" values="0 0 0 0 0 0 0 0 0 0 0 0 0 0 0 0 0 0 127 0"/>
<feOffset dy="4"/>
<feGaussianBlur stdDeviation="2"/>
<feColorMatrix type="matrix" values="0 0 0 0 0 0 0 0 0 0 0 0 0 0 0 0 0 0 0.25 0"/>
<feBlend mode="normal" in2="BackgroundImageFix" result="effect1_dropShadow"/>
<feBlend mode="normal" in="SourceGraphic" in2="effect1_dropShadow" result="shape"/>
</filter>
<filter id="filter12_d" x="1157" y="1567" width="214" height="219" filterUnits="userSpaceOnUse" color-interpolation-filters="sRGB">
<feFlood flood-opacity="0" result="BackgroundImageFix"/>
<feColorMatrix in="SourceAlpha" type="matrix" values="0 0 0 0 0 0 0 0 0 0 0 0 0 0 0 0 0 0 127 0"/>
<feOffset dy="4"/>
<feGaussianBlur stdDeviation="2"/>
<feColorMatrix type="matrix" values="0 0 0 0 0 0 0 0 0 0 0 0 0 0 0 0 0 0 0.25 0"/>
<feBlend mode="normal" in2="BackgroundImageFix" result="effect1_dropShadow"/>
<feBlend mode="normal" in="SourceGraphic" in2="effect1_dropShadow" result="shape"/>
</filter>
<filter id="filter13_d" x="1384.89" y="325.335" width="414.111" height="355.468" filterUnits="userSpaceOnUse" color-interpolation-filters="sRGB">
<feFlood flood-opacity="0" result="BackgroundImageFix"/>
<feColorMatrix in="SourceAlpha" type="matrix" values="0 0 0 0 0 0 0 0 0 0 0 0 0 0 0 0 0 0 127 0"/>
<feOffset dy="4"/>
<feGaussianBlur stdDeviation="2"/>
<feColorMatrix type="matrix" values="0 0 0 0 0 0 0 0 0 0 0 0 0 0 0 0 0 0 0.25 0"/>
<feBlend mode="normal" in2="BackgroundImageFix" result="effect1_dropShadow"/>
<feBlend mode="normal" in="SourceGraphic" in2="effect1_dropShadow" result="shape"/>
</filter>
<filter id="filter14_d" x="722.645" y="325.661" width="404.862" height="354.871" filterUnits="userSpaceOnUse" color-interpolation-filters="sRGB">
<feFlood flood-opacity="0" result="BackgroundImageFix"/>
<feColorMatrix in="SourceAlpha" type="matrix" values="0 0 0 0 0 0 0 0 0 0 0 0 0 0 0 0 0 0 127 0"/>
<feOffset dy="4"/>
<feGaussianBlur stdDeviation="2"/>
<feColorMatrix type="matrix" values="0 0 0 0 0 0 0 0 0 0 0 0 0 0 0 0 0 0 0.25 0"/>
<feBlend mode="normal" in2="BackgroundImageFix" result="effect1_dropShadow"/>
<feBlend mode="normal" in="SourceGraphic" in2="effect1_dropShadow" result="shape"/>
</filter>
<filter id="filter15_d" x="1665.4" y="831.934" width="202.468" height="252.325" filterUnits="userSpaceOnUse" color-interpolation-filters="sRGB">
<feFlood flood-opacity="0" result="BackgroundImageFix"/>
<feColorMatrix in="SourceAlpha" type="matrix" values="0 0 0 0 0 0 0 0 0 0 0 0 0 0 0 0 0 0 127 0"/>
<feOffset dy="4"/>
<feGaussianBlur stdDeviation="2"/>
<feColorMatrix type="matrix" values="0 0 0 0 0 0 0 0 0 0 0 0 0 0 0 0 0 0 0.25 0"/>
<feBlend mode="normal" in2="BackgroundImageFix" result="effect1_dropShadow"/>
<feBlend mode="normal" in="SourceGraphic" in2="effect1_dropShadow" result="shape"/>
</filter>
<filter id="filter16_d" x="663.404" y="1294.93" width="202.468" height="252.325" filterUnits="userSpaceOnUse" color-interpolation-filters="sRGB">
<feFlood flood-opacity="0" result="BackgroundImageFix"/>
<feColorMatrix in="SourceAlpha" type="matrix" values="0 0 0 0 0 0 0 0 0 0 0 0 0 0 0 0 0 0 127 0"/>
<feOffset dy="4"/>
<feGaussianBlur stdDeviation="2"/>
<feColorMatrix type="matrix" values="0 0 0 0 0 0 0 0 0 0 0 0 0 0 0 0 0 0 0.25 0"/>
<feBlend mode="normal" in2="BackgroundImageFix" result="effect1_dropShadow"/>
<feBlend mode="normal" in="SourceGraphic" in2="effect1_dropShadow" result="shape"/>
</filter>
<filter id="filter17_d" x="1341.4" y="1294.93" width="202.468" height="252.325" filterUnits="userSpaceOnUse" color-interpolation-filters="sRGB">
<feFlood flood-opacity="0" result="BackgroundImageFix"/>
<feColorMatrix in="SourceAlpha" type="matrix" values="0 0 0 0 0 0 0 0 0 0 0 0 0 0 0 0 0 0 127 0"/>
<feOffset dy="4"/>
<feGaussianBlur stdDeviation="2"/>
<feColorMatrix type="matrix" values="0 0 0 0 0 0 0 0 0 0 0 0 0 0 0 0 0 0 0.25 0"/>
<feBlend mode="normal" in2="BackgroundImageFix" result="effect1_dropShadow"/>
<feBlend mode="normal" in="SourceGraphic" in2="effect1_dropShadow" result="shape"/>
</filter>
<filter id="filter18_d" x="1973.47" y="830.003" width="219.04" height="256.004" filterUnits="userSpaceOnUse" color-interpolation-filters="sRGB">
<feFlood flood-opacity="0" result="BackgroundImageFix"/>
<feColorMatrix in="SourceAlpha" type="matrix" values="0 0 0 0 0 0 0 0 0 0 0 0 0 0 0 0 0 0 127 0"/>
<feOffset dy="4"/>
<feGaussianBlur stdDeviation="2"/>
<feColorMatrix type="matrix" values="0 0 0 0 0 0 0 0 0 0 0 0 0 0 0 0 0 0 0.25 0"/>
<feBlend mode="normal" in2="BackgroundImageFix" result="effect1_dropShadow"/>
<feBlend mode="normal" in="SourceGraphic" in2="effect1_dropShadow" result="shape"/>
</filter>
<filter id="filter19_d" x="1969.4" y="1294.93" width="202.468" height="252.325" filterUnits="userSpaceOnUse" color-interpolation-filters="sRGB">
<feFlood flood-opacity="0" result="BackgroundImageFix"/>
<feColorMatrix in="SourceAlpha" type="matrix" values="0 0 0 0 0 0 0 0 0 0 0 0 0 0 0 0 0 0 127 0"/>
<feOffset dy="4"/>
<feGaussianBlur stdDeviation="2"/>
<feColorMatrix type="matrix" values="0 0 0 0 0 0 0 0 0 0 0 0 0 0 0 0 0 0 0.25 0"/>
<feBlend mode="normal" in2="BackgroundImageFix" result="effect1_dropShadow"/>
<feBlend mode="normal" in="SourceGraphic" in2="effect1_dropShadow" result="shape"/>
</filter>
<filter id="filter20_d" x="2277.47" y="1293" width="219.04" height="256.004" filterUnits="userSpaceOnUse" color-interpolation-filters="sRGB">
<feFlood flood-opacity="0" result="BackgroundImageFix"/>
<feColorMatrix in="SourceAlpha" type="matrix" values="0 0 0 0 0 0 0 0 0 0 0 0 0 0 0 0 0 0 127 0"/>
<feOffset dy="4"/>
<feGaussianBlur stdDeviation="2"/>
<feColorMatrix type="matrix" values="0 0 0 0 0 0 0 0 0 0 0 0 0 0 0 0 0 0 0.25 0"/>
<feBlend mode="normal" in2="BackgroundImageFix" result="effect1_dropShadow"/>
<feBlend mode="normal" in="SourceGraphic" in2="effect1_dropShadow" result="shape"/>
</filter>
<filter id="filter21_d" x="353.404" y="1791.93" width="202.468" height="252.325" filterUnits="userSpaceOnUse" color-interpolation-filters="sRGB">
<feFlood flood-opacity="0" result="BackgroundImageFix"/>
<feColorMatrix in="SourceAlpha" type="matrix" values="0 0 0 0 0 0 0 0 0 0 0 0 0 0 0 0 0 0 127 0"/>
<feOffset dy="4"/>
<feGaussianBlur stdDeviation="2"/>
<feColorMatrix type="matrix" values="0 0 0 0 0 0 0 0 0 0 0 0 0 0 0 0 0 0 0.25 0"/>
<feBlend mode="normal" in2="BackgroundImageFix" result="effect1_dropShadow"/>
<feBlend mode="normal" in="SourceGraphic" in2="effect1_dropShadow" result="shape"/>
</filter>
<filter id="filter22_d" x="667.474" y="1790" width="219.04" height="256.004" filterUnits="userSpaceOnUse" color-interpolation-filters="sRGB">
<feFlood flood-opacity="0" result="BackgroundImageFix"/>
<feColorMatrix in="SourceAlpha" type="matrix" values="0 0 0 0 0 0 0 0 0 0 0 0 0 0 0 0 0 0 127 0"/>
<feOffset dy="4"/>
<feGaussianBlur stdDeviation="2"/>
<feColorMatrix type="matrix" values="0 0 0 0 0 0 0 0 0 0 0 0 0 0 0 0 0 0 0.25 0"/>
<feBlend mode="normal" in2="BackgroundImageFix" result="effect1_dropShadow"/>
<feBlend mode="normal" in="SourceGraphic" in2="effect1_dropShadow" result="shape"/>
</filter>
<filter id="filter23_d" x="385.404" y="831.934" width="202.468" height="252.325" filterUnits="userSpaceOnUse" color-interpolation-filters="sRGB">
<feFlood flood-opacity="0" result="BackgroundImageFix"/>
<feColorMatrix in="SourceAlpha" type="matrix" values="0 0 0 0 0 0 0 0 0 0 0 0 0 0 0 0 0 0 127 0"/>
<feOffset dy="4"/>
<feGaussianBlur stdDeviation="2"/>
<feColorMatrix type="matrix" values="0 0 0 0 0 0 0 0 0 0 0 0 0 0 0 0 0 0 0.25 0"/>
<feBlend mode="normal" in2="BackgroundImageFix" result="effect1_dropShadow"/>
<feBlend mode="normal" in="SourceGraphic" in2="effect1_dropShadow" result="shape"/>
</filter>
<filter id="filter24_d" x="693.474" y="830.003" width="219.04" height="256.004" filterUnits="userSpaceOnUse" color-interpolation-filters="sRGB">
<feFlood flood-opacity="0" result="BackgroundImageFix"/>
<feColorMatrix in="SourceAlpha" type="matrix" values="0 0 0 0 0 0 0 0 0 0 0 0 0 0 0 0 0 0 127 0"/>
<feOffset dy="4"/>
<feGaussianBlur stdDeviation="2"/>
<feColorMatrix type="matrix" values="0 0 0 0 0 0 0 0 0 0 0 0 0 0 0 0 0 0 0.25 0"/>
<feBlend mode="normal" in2="BackgroundImageFix" result="effect1_dropShadow"/>
<feBlend mode="normal" in="SourceGraphic" in2="effect1_dropShadow" result="shape"/>
</filter>
<clipPath id="clip0">
<rect width="2797" height="2368" fill="white" transform="matrix(-1 0 0 1 2797 0)"/>
</clipPath>
</defs>
</svg>
