<svg width="2797" height="2368" viewBox="0 0 2797 2368" fill="none" xmlns="http://www.w3.org/2000/svg">
<g clip-path="url(#clip0)">
<rect width="2797" height="2368" fill="white"/>
<path d="M1550 323.5C1550 390.603 1498.51 445 1435 445C1371.49 445 1320 390.603 1320 323.5C1320 256.397 1371.49 202 1435 202C1498.51 202 1550 256.397 1550 323.5Z" fill="#71EB52"/>
<ellipse cx="2075" cy="802.5" rx="103" ry="105.5" fill="#71EB52"/>
<ellipse cx="795" cy="802.5" rx="103" ry="105.5" fill="#71EB52"/>
<ellipse cx="1099" cy="1213.5" rx="103" ry="105.5" fill="#71EB52"/>
<ellipse cx="491" cy="1213.5" rx="103" ry="105.5" fill="#71EB52"/>
<ellipse cx="2379" cy="1213.5" rx="103" ry="105.5" fill="#71EB52"/>
<ellipse cx="1771" cy="1213.5" rx="103" ry="105.5" fill="#71EB52"/>
<ellipse cx="2075" cy="1728.5" rx="103" ry="105.5" fill="#71EB52"/>
<ellipse cx="2379" cy="2173.5" rx="103" ry="105.5" fill="#71EB52"/>
<ellipse cx="1771" cy="2173.5" rx="103" ry="105.5" fill="#71EB52"/>
<ellipse cx="763" cy="1728.5" rx="103" ry="105.5" fill="#71EB52"/>
<ellipse cx="155" cy="1728.5" rx="103" ry="105.5" fill="#71EB52"/>
<ellipse cx="1435" cy="1728.5" rx="103" ry="105.5" fill="#71EB52"/>
<path d="M926.029 696.467C925.734 699.212 927.721 701.677 930.466 701.971L975.21 706.773C977.955 707.067 980.42 705.081 980.715 702.335C981.009 699.589 979.022 697.125 976.277 696.83L936.505 692.562L940.773 652.79C941.067 650.045 939.08 647.58 936.335 647.285C933.589 646.991 931.125 648.978 930.83 651.723L926.029 696.467ZM1283.86 406.107L927.862 693.107L934.138 700.893L1290.14 413.893L1283.86 406.107Z" fill="black"/>
<path d="M1945.46 701.978C1948.21 701.722 1950.23 699.285 1949.98 696.536L1945.8 651.73C1945.55 648.981 1943.11 646.959 1940.36 647.216C1937.61 647.472 1935.59 649.909 1935.85 652.658L1939.56 692.486L1899.73 696.198C1896.98 696.454 1894.96 698.891 1895.22 701.64C1895.47 704.39 1897.91 706.411 1900.66 706.155L1945.46 701.978ZM1595.81 413.848L1941.81 700.848L1948.19 693.152L1602.19 406.152L1595.81 413.848Z" fill="black"/>
<path d="M994.962 1112.89C997.664 1113.46 1000.32 1111.74 1000.89 1109.04L1010.23 1065.02C1010.8 1062.32 1009.08 1059.66 1006.38 1059.09C1003.67 1058.52 1001.02 1060.24 1000.45 1062.94L992.146 1102.07L953.017 1093.77C950.316 1093.2 947.661 1094.92 947.088 1097.62C946.515 1100.33 948.241 1102.98 950.942 1103.55L994.962 1112.89ZM861.808 910.725L991.808 1110.72L1000.19 1105.28L870.192 905.275L861.808 910.725Z" fill="black"/>
<path d="M1996.96 1575.89C1999.66 1576.46 2002.32 1574.74 2002.89 1572.04L2012.23 1528.02C2012.8 1525.32 2011.08 1522.66 2008.38 1522.09C2005.67 1521.52 2003.02 1523.24 2002.45 1525.94L1994.15 1565.07L1955.02 1556.77C1952.32 1556.2 1949.66 1557.92 1949.09 1560.62C1948.52 1563.33 1950.24 1565.98 1952.94 1566.55L1996.96 1575.89ZM1863.81 1373.72L1993.81 1573.72L2002.19 1568.28L1872.19 1368.28L1863.81 1373.72Z" fill="black"/>
<path d="M1318.96 1575.89C1321.66 1576.46 1324.32 1574.74 1324.89 1572.04L1334.23 1528.02C1334.8 1525.32 1333.08 1522.66 1330.38 1522.09C1327.67 1521.52 1325.02 1523.24 1324.45 1525.94L1316.15 1565.07L1277.02 1556.77C1274.32 1556.2 1271.66 1557.92 1271.09 1560.62C1270.52 1563.33 1272.24 1565.98 1274.94 1566.55L1318.96 1575.89ZM1185.81 1373.72L1315.81 1573.72L1324.19 1568.28L1194.19 1368.28L1185.81 1373.72Z" fill="black"/>
<path d="M538.053 1108.72C538.452 1111.46 540.991 1113.35 543.723 1112.95L588.25 1106.44C590.982 1106.04 592.874 1103.5 592.475 1100.77C592.075 1098.04 589.536 1096.15 586.804 1096.55L547.224 1102.33L541.441 1062.75C541.041 1060.02 538.503 1058.13 535.77 1058.53C533.038 1058.92 531.146 1061.46 531.546 1064.2L538.053 1108.72ZM687.99 905.013L538.99 1105.01L547.01 1110.99L696.01 910.987L687.99 905.013Z" fill="black"/>
<path d="M690.962 1575.89C693.664 1576.46 696.318 1574.74 696.891 1572.04L706.229 1528.02C706.802 1525.32 705.077 1522.66 702.375 1522.09C699.674 1521.52 697.02 1523.24 696.447 1525.94L688.146 1565.07L649.017 1556.77C646.316 1556.2 643.661 1557.92 643.088 1560.62C642.515 1563.33 644.241 1565.98 646.942 1566.55L690.962 1575.89ZM557.808 1373.72L687.808 1573.72L696.192 1568.28L566.192 1368.28L557.808 1373.72Z" fill="black"/>
<path d="M234.053 1571.72C234.452 1574.46 236.991 1576.35 239.723 1575.95L284.25 1569.44C286.982 1569.04 288.874 1566.5 288.475 1563.77C288.075 1561.04 285.536 1559.15 282.804 1559.55L243.224 1565.33L237.441 1525.75C237.041 1523.02 234.503 1521.13 231.77 1521.53C229.038 1521.92 227.146 1524.46 227.546 1527.2L234.053 1571.72ZM383.99 1368.01L234.99 1568.01L243.01 1573.99L392.01 1373.99L383.99 1368.01Z" fill="black"/>
<path d="M2306.96 2072.89C2309.66 2073.46 2312.32 2071.74 2312.89 2069.04L2322.23 2025.02C2322.8 2022.32 2321.08 2019.66 2318.38 2019.09C2315.67 2018.52 2313.02 2020.24 2312.45 2022.94L2304.15 2062.07L2265.02 2053.77C2262.32 2053.2 2259.66 2054.92 2259.09 2057.62C2258.52 2060.33 2260.24 2062.98 2262.94 2063.55L2306.96 2072.89ZM2173.81 1870.72L2303.81 2070.72L2312.19 2065.28L2182.19 1865.28L2173.81 1870.72Z" fill="black"/>
<path d="M1844.05 2068.72C1844.45 2071.46 1846.99 2073.35 1849.72 2072.95L1894.25 2066.44C1896.98 2066.04 1898.87 2063.5 1898.47 2060.77C1898.08 2058.04 1895.54 2056.15 1892.8 2056.55L1853.22 2062.33L1847.44 2022.75C1847.04 2020.02 1844.5 2018.13 1841.77 2018.53C1839.04 2018.92 1837.15 2021.46 1837.55 2024.2L1844.05 2068.72ZM1993.99 1865.01L1844.99 2065.01L1853.01 2070.99L2002.01 1870.99L1993.99 1865.01Z" fill="black"/>
<path d="M2274.96 1112.89C2277.66 1113.46 2280.32 1111.74 2280.89 1109.04L2290.23 1065.02C2290.8 1062.32 2289.08 1059.66 2286.38 1059.09C2283.67 1058.52 2281.02 1060.24 2280.45 1062.94L2272.15 1102.07L2233.02 1093.77C2230.32 1093.2 2227.66 1094.92 2227.09 1097.62C2226.52 1100.33 2228.24 1102.98 2230.94 1103.55L2274.96 1112.89ZM2141.81 910.725L2271.81 1110.72L2280.19 1105.28L2150.19 905.275L2141.81 910.725Z" fill="black"/>
<path d="M1818.05 1108.72C1818.45 1111.46 1820.99 1113.35 1823.72 1112.95L1868.25 1106.44C1870.98 1106.04 1872.87 1103.5 1872.47 1100.77C1872.08 1098.04 1869.54 1096.15 1866.8 1096.55L1827.22 1102.33L1821.44 1062.75C1821.04 1060.02 1818.5 1058.13 1815.77 1058.53C1813.04 1058.92 1811.15 1061.46 1811.55 1064.2L1818.05 1108.72ZM1967.99 905.013L1818.99 1105.01L1827.01 1110.99L1976.01 910.987L1967.99 905.013Z" fill="black"/>
</g>
<defs>
<clipPath id="clip0">
<rect width="2797" height="2368" fill="white"/>
</clipPath>
</defs>
</svg>
